<?xml version="1.0" standalone="no"?>
<!DOCTYPE svg PUBLIC "-//W3C//DTD SVG 20010904//EN"
 "http://www.w3.org/TR/2001/REC-SVG-20010904/DTD/svg10.dtd">
<svg version="1.0" xmlns="http://www.w3.org/2000/svg"
 width="500.000000pt" height="500.000000pt" viewBox="0 0 500.000000 500.000000"
 preserveAspectRatio="xMidYMid meet">
<metadata>
Created by potrace 1.11, written by Peter Selinger 2001-2013
</metadata>
<g transform="translate(0.000000,500.000000) scale(0.100000,-0.100000)"
fill="#000000" stroke="none">
<path d="M2218 4440 c-25 -15 -23 -32 19 -124 35 -77 38 -88 41 -201 3 -107
-30 -523 -43 -545 -3 -4 -19 -10 -37 -13 -120 -22 -639 -129 -665 -138 -43
-14 -44 -43 -3 -64 77 -40 262 -42 535 -5 77 10 141 17 142 16 4 -3 -97 -519
-102 -524 -9 -9 -770 -122 -825 -122 -36 0 -111 11 -168 25 -152 37 -202 32
-222 -21 -7 -19 -5 -39 11 -82 104 -282 133 -478 134 -882 0 -247 -2 -276 -28
-430 -19 -109 -27 -182 -23 -215 7 -63 73 -199 121 -248 42 -43 68 -45 97 -7
69 94 81 633 33 1444 -8 142 -13 261 -11 264 7 6 1328 203 1333 198 8 -8 -34
-158 -72 -261 -38 -103 -112 -274 -124 -287 -8 -10 -220 -50 -486 -93 -121
-20 -230 -40 -242 -45 -34 -14 -29 -46 10 -67 52 -27 183 -29 367 -3 89 12
164 19 168 16 8 -8 27 -285 20 -291 -10 -10 -338 -60 -656 -100 -28 -4 -62
-15 -73 -24 -19 -15 -20 -21 -10 -40 18 -33 69 -50 176 -61 101 -9 130 -6 376
35 81 14 156 25 168 25 20 0 20 0 15 -337 -7 -364 -3 -400 43 -430 21 -14 25
-13 52 14 16 17 36 53 45 84 24 77 44 282 52 510 l6 196 52 7 c173 21 342 36
491 42 202 7 220 14 212 76 -9 70 -55 102 -157 112 -54 6 -112 -2 -330 -42
l-265 -49 -3 31 c-2 17 6 73 19 125 25 103 22 116 -27 141 -28 14 -27 15 86
37 63 12 198 36 300 53 189 32 225 42 244 72 15 24 -3 69 -34 86 -33 17 -138
10 -299 -23 -69 -13 -126 -23 -128 -21 -9 9 138 234 210 321 71 86 76 99 46
131 -13 14 -43 40 -67 56 -24 16 -41 32 -39 35 8 8 673 93 772 99 168 10 171
3 183 -371 5 -154 8 -300 6 -325 -2 -25 -11 -178 -19 -340 -32 -585 -63 -747
-150 -789 -26 -13 -45 -10 -219 33 -195 48 -236 54 -236 36 0 -6 41 -61 90
-121 50 -61 131 -171 181 -245 132 -195 172 -232 236 -215 77 21 136 88 216
246 115 227 148 452 167 1130 9 345 22 486 56 620 19 73 35 105 86 174 22 29
41 64 41 76 0 36 -41 82 -138 155 -105 80 -204 130 -258 130 -21 0 -125 -16
-230 -35 -240 -44 -1140 -184 -1147 -178 -5 5 87 473 100 507 7 20 22 25 117
40 183 30 636 116 667 126 64 22 83 69 52 129 -25 48 -84 66 -211 65 -111 0
-219 -23 -500 -104 -38 -11 -75 -20 -81 -20 -7 0 -3 37 13 108 45 207 96 344
157 426 50 66 43 96 -28 146 -139 95 -358 170 -408 140z"/>
<path d="M1770 2585 c0 -2 14 -39 31 -82 44 -112 92 -195 139 -237 34 -30 47
-36 85 -36 51 0 81 22 90 67 4 16 8 37 10 48 6 30 -13 104 -36 135 -27 36 -99
75 -174 95 -56 14 -145 21 -145 10z"/>
</g>
</svg>
